<?xml version="1.0" encoding="iso-8859-1"?>
<!-- Generator: Adobe Illustrator 16.0.0, SVG Export Plug-In . SVG Version: 6.00 Build 0)  -->
<!DOCTYPE svg PUBLIC "-//W3C//DTD SVG 1.1//EN" "http://www.w3.org/Graphics/SVG/1.1/DTD/svg11.dtd">
<svg version="1.1" id="Capa_1" xmlns="http://www.w3.org/2000/svg" xmlns:xlink="http://www.w3.org/1999/xlink" x="0px" y="0px"
	 width="79.536px" height="79.536px" viewBox="0 0 79.536 79.536" style="enable-background:new 0 0 79.536 79.536;"
	 xml:space="preserve">
<g>
	<path style="fill:#010002;" d="M73.395,46.598v32.938H50.166v-5.976H29.081v5.976H6.142V46.598H73.395z M58.901,40.542
		c-0.917-4.158-2.987-7.625-6.261-10.418c-3.163-2.727-6.912-4.296-11.254-4.715h-0.313v-11.04c0.271-0.046,0.577-0.085,0.991-0.233
		c0.572-0.207,1.193-0.445,1.908-0.704c0.704-0.251,1.388-0.456,2.051-0.601c0.652-0.157,1.118-0.228,1.435-0.228
		c0.595,0,1.372,0.101,2.272,0.303c0.912,0.228,1.88,0.477,2.869,0.759c1.021,0.324,1.941,0.562,2.827,0.774
		c0.85,0.199,1.595,0.285,2.18,0.285c0.938,0,1.932-0.132,3.05-0.43V2.291c-0.921,0.392-1.921,0.608-3.05,0.608
		c-0.585,0-1.33-0.096-2.18-0.318c-0.886-0.173-1.807-0.45-2.827-0.753c-0.989-0.311-1.926-0.544-2.786-0.741
		c-0.864-0.212-1.584-0.318-2.195-0.318c-2.04,0-4.226,0.5-6.54,1.421V0H38.23v25.409h-0.163c-4.311,0.419-8.086,1.988-11.252,4.715
		c-3.203,2.793-5.287,6.26-6.269,10.418c0,0-3.068-0.515-3.068,2.913h44.783C62.262,40.41,58.901,40.542,58.901,40.542z"/>
</g>
<g>
</g>
<g>
</g>
<g>
</g>
<g>
</g>
<g>
</g>
<g>
</g>
<g>
</g>
<g>
</g>
<g>
</g>
<g>
</g>
<g>
</g>
<g>
</g>
<g>
</g>
<g>
</g>
<g>
</g>
</svg>
